<svg width="347" height="277" viewBox="0 0 347 277" fill="none" xmlns="http://www.w3.org/2000/svg">
<path d="M171.933 0.24353V210.411L114.46 197.504L125.906 23.1355L171.933 0.24353Z" fill="#0D0D0E"/>
<path d="M221.126 200.183L176.317 210.411V0L208.463 18.0213L221.126 200.183Z" fill="#0D0D0E"/>
<path d="M2.86102e-05 233.79L0.487091 275.434H9.25421V250.837L17.0472 267.884H24.3531L31.6591 250.837V275.434H40.9133V233.79H30.4414L20.7002 255.708L10.7154 233.79H2.86102e-05Z" fill="#0D0D0E"/>
<path fill-rule="evenodd" clip-rule="evenodd" d="M47.2451 260.091C47.2451 260.091 46.8475 251.805 47.9757 246.697C48.0778 246.235 48.1547 245.832 48.2256 245.46C48.4835 244.109 48.6615 243.176 49.6804 241.339C52.4055 236.426 56.8064 233.79 62.8311 233.059C64.5305 232.853 65.5152 232.853 67.2146 233.059C73.2393 233.79 77.7774 236.489 80.3653 241.339C81.314 243.117 81.6643 244.473 82.07 246.697C82.9408 251.47 82.5571 260.091 82.5571 260.091C82.5571 260.091 81.8526 264.816 80.3653 267.397C77.335 272.655 73.2393 274.946 67.2146 275.677C65.5152 275.883 64.5305 275.883 62.8311 275.677C56.8064 274.946 52.4651 272.789 49.6804 267.397C48.3361 264.794 47.2451 260.091 47.2451 260.091ZM56.9863 248.158C56.9863 248.158 57.9501 245.178 58.9346 243.775C59.9191 242.371 61.1029 241.822 62.8311 241.339C64.4798 240.879 65.5659 240.879 67.2146 241.339C68.9428 241.822 69.9361 242.33 71.1111 243.775C72.2861 245.219 72.9875 248.158 72.9875 248.158V260.091C72.9875 260.091 72.4696 263.259 71.3547 264.718C70.1534 266.291 69.0707 266.884 67.2146 267.397C65.5647 267.853 64.4826 267.848 62.8311 267.397C60.8461 266.856 59.6593 266.138 58.4475 264.475C57.3847 263.017 56.9863 260.091 56.9863 260.091V248.158Z" fill="#0D0D0E"/>
<path d="M171.689 275.832L171.202 233.214H180.944V267.154H197.747V275.832H171.689Z" fill="#0D0D0E"/>
<path d="M204.079 275.832V233.214H213.09V275.832H204.079Z" fill="#0D0D0E"/>
<path d="M249.619 233.214H219.422V241.494H229.893V275.832H239.148V241.494H249.619V233.214Z" fill="#0D0D0E"/>
<path d="M255.708 275.832V233.214H264.962V249.863H278.356V233.214H287.854V275.19H278.356V258.874H264.962V275.832H255.708Z" fill="#0D0D0E"/>
<path d="M304.901 233.214H295.647V275.19H304.901V233.214Z" fill="#0D0D0E"/>
<path d="M335.342 242.557C338.423 244.353 338.021 249.863 338.021 249.863H346.301C346.301 249.863 346.446 244.479 345.084 241.494C343.721 238.51 339.671 234.43 334.368 233.214C331.402 232.534 329.566 232.65 326.575 233.214C324.614 233.584 323.504 233.899 321.705 234.764C318.145 236.476 316.083 238.047 314.155 241.494C312.517 244.423 312.207 249.863 312.207 249.863C312.207 249.863 311.79 255.38 312.207 258.874C312.207 258.874 312.576 264.231 314.155 267.154C316.075 270.705 318.092 272.415 321.705 274.216C323.498 275.11 324.609 275.447 326.575 275.832C328.542 276.217 331.44 276.662 334.368 275.832C337.296 275.002 343.146 271.923 345.084 268.615C347.021 265.307 346.301 258.874 346.301 258.874H338.021C338.021 258.874 338.394 264.639 335.342 266.423C332.715 267.959 329.302 268.505 326.575 267.154C323.214 265.488 321.705 258.874 321.705 258.874V249.863C321.705 249.863 323.186 244.235 326.575 242.557C329.303 241.207 332.713 241.024 335.342 242.557Z" fill="#0D0D0E"/>
<path fill-rule="evenodd" clip-rule="evenodd" d="M129.383 260.246C129.383 260.246 128.985 251.959 130.114 246.852C130.216 246.389 130.293 245.986 130.364 245.615C130.621 244.264 130.799 243.331 131.818 241.494C134.543 236.581 138.944 233.945 144.969 233.214C146.668 233.008 147.653 233.008 149.353 233.214C155.377 233.945 159.915 236.644 162.503 241.494C163.452 243.272 163.802 244.628 164.208 246.852C165.079 251.624 164.695 260.246 164.695 260.246C164.695 260.246 163.991 264.971 162.503 267.552C159.473 272.81 155.377 275.101 149.353 275.832C147.653 276.038 146.668 276.038 144.969 275.832C138.944 275.101 134.603 272.944 131.818 267.552C130.474 264.949 129.383 260.246 129.383 260.246ZM139.124 248.313C139.124 248.313 140.088 245.333 141.072 243.929C142.057 242.526 143.241 241.977 144.969 241.494C146.618 241.033 147.704 241.033 149.353 241.494C151.081 241.977 152.074 242.485 153.249 243.929C154.424 245.374 155.125 248.313 155.125 248.313V260.246C155.125 260.246 154.608 263.413 153.493 264.873C152.291 266.446 151.209 267.039 149.353 267.552C147.703 268.008 146.621 268.002 144.969 267.552C142.984 267.011 141.797 266.292 140.585 264.63C139.523 263.171 139.124 260.246 139.124 260.246V248.313Z" fill="#0D0D0E"/>
<path d="M89.863 233.79V275.19H99.6043V251.081L113.486 275.19H122.496V233.79H113.729L113.973 258.63L99.6043 233.79H89.863Z" fill="#0D0D0E"/>
</svg>
