<svg width="712" height="568" viewBox="0 0 712 568" fill="none" xmlns="http://www.w3.org/2000/svg">
<path d="M353 0.5V432L235 405.5L258.5 47.5L353 0.5Z" fill="#FAFAFB"/>
<path d="M454 411L362 432V0L428 37L454 411Z" fill="#FAFAFB"/>
<path d="M0 480L1 565.5H19V515L35 550H50L65 515V565.5H84V480H62.5L42.5 525L22 480H0Z" fill="#FAFAFB"/>
<path fill-rule="evenodd" clip-rule="evenodd" d="M97 534C97 534 96.1837 516.987 98.5 506.5C98.7097 505.551 98.8676 504.723 99.0132 503.961C99.5427 501.186 99.9081 499.272 102 495.5C107.595 485.412 116.631 480.001 129 478.5C132.489 478.077 134.511 478.077 138 478.5C150.369 480.001 159.687 485.542 165 495.5C166.948 499.15 167.667 501.934 168.5 506.5C170.288 516.299 169.5 534 169.5 534C169.5 534 168.054 543.701 165 549C158.778 559.796 150.369 564.499 138 566C134.511 566.423 132.489 566.423 129 566C116.631 564.499 107.717 560.071 102 549C99.2399 543.655 97 534 97 534ZM117 509.5C117 509.5 118.979 503.382 121 500.5C123.021 497.618 125.452 496.492 129 495.5C132.385 494.554 134.615 494.554 138 495.5C141.548 496.492 143.588 497.534 146 500.5C148.412 503.466 149.852 509.5 149.852 509.5V534C149.852 534 148.789 540.503 146.5 543.5C144.034 546.729 141.811 547.946 138 549C134.612 549.937 132.391 549.925 129 549C124.925 547.889 122.488 546.414 120 543C117.818 540.006 117 534 117 534V509.5Z" fill="#FAFAFB"/>
<path d="M352.5 566.318L351.5 478.818H371.5V548.5H406V566.318H352.5Z" fill="#FAFAFB"/>
<path d="M419 566.318V478.818H437.5V566.318H419Z" fill="#FAFAFB"/>
<path d="M512.5 478.818H450.5V495.818H472V566.318H491V495.818H512.5V478.818Z" fill="#FAFAFB"/>
<path d="M525 566.318V478.818H544V513H571.5V478.818H591V565H571.5V531.5H544V566.318H525Z" fill="#FAFAFB"/>
<path d="M626 478.818H607V565H626V478.818Z" fill="#FAFAFB"/>
<path d="M688.5 498C694.825 501.688 694 513 694 513H711C711 513 711.297 501.945 708.5 495.818C705.703 489.69 697.387 481.314 686.5 478.818C680.41 477.421 676.64 477.66 670.5 478.818C666.473 479.577 664.193 480.224 660.5 482C653.192 485.514 648.958 488.74 645 495.818C641.637 501.831 641 513 641 513C641 513 640.143 524.326 641 531.5C641 531.5 641.757 542.5 645 548.5C648.941 555.792 653.082 559.301 660.5 563C664.182 564.836 666.462 565.527 670.5 566.318C674.538 567.108 680.488 568.022 686.5 566.318C692.512 564.613 704.523 558.292 708.5 551.5C712.477 544.708 711 531.5 711 531.5H694C694 531.5 694.764 543.338 688.5 547C683.106 550.154 676.099 551.274 670.5 548.5C663.598 545.081 660.5 531.5 660.5 531.5V513C660.5 513 663.542 501.445 670.5 498C676.1 495.227 683.102 494.853 688.5 498Z" fill="#FAFAFB"/>
<path fill-rule="evenodd" clip-rule="evenodd" d="M265.64 534.318C265.64 534.318 264.823 517.304 267.14 506.818C267.349 505.868 267.507 505.041 267.653 504.278C268.182 501.504 268.548 499.589 270.64 495.818C276.234 485.73 285.27 480.318 297.639 478.818C301.129 478.394 303.15 478.394 306.639 478.818C319.009 480.318 328.326 485.86 333.639 495.818C335.587 499.468 336.306 502.252 337.14 506.818C338.927 516.616 338.139 534.318 338.139 534.318C338.139 534.318 336.693 544.019 333.639 549.318C327.418 560.113 319.009 564.817 306.639 566.318C303.15 566.741 301.129 566.741 297.639 566.318C285.27 564.817 276.357 560.389 270.64 549.318C267.879 543.973 265.64 534.318 265.64 534.318ZM285.639 509.818C285.639 509.818 287.618 503.699 289.639 500.818C291.661 497.936 294.091 496.809 297.639 495.818C301.024 494.871 303.255 494.871 306.639 495.818C310.188 496.809 312.227 497.852 314.639 500.818C317.052 503.784 318.492 509.818 318.492 509.818V534.318C318.492 534.318 317.429 540.821 315.139 543.818C312.673 547.047 310.45 548.264 306.639 549.318C303.252 550.254 301.03 550.242 297.639 549.318C293.564 548.206 291.127 546.731 288.64 543.318C286.457 540.324 285.639 534.318 285.639 534.318V509.818Z" fill="#FAFAFB"/>
<path d="M184.5 480V565H204.5V515.5L233 565H251.5V480H233.5L234 531L204.5 480H184.5Z" fill="#FAFAFB"/>
</svg>
