<?xml version="1.0" encoding="UTF-8" standalone="no"?>
<!DOCTYPE svg PUBLIC "-//W3C//DTD SVG 1.1//EN" "http://www.w3.org/Graphics/SVG/1.1/DTD/svg11.dtd">
<svg width="100%" height="100%" viewBox="0 0 473 210" version="1.1" xmlns="http://www.w3.org/2000/svg" xmlns:xlink="http://www.w3.org/1999/xlink" xml:space="preserve" xmlns:serif="http://www.serif.com/" style="fill-rule:evenodd;clip-rule:evenodd;stroke-linejoin:round;stroke-miterlimit:2;">
    <g transform="matrix(1,0,0,1,-114.46,-0.11822)">
        <path d="M171.933,0.244L171.933,210.411L114.46,197.504L125.906,23.136L171.933,0.244Z" style="fill:rgb(13,13,14);fill-rule:nonzero;"/>
    </g>
    <g transform="matrix(1,0,0,1,-114.46,-0.11822)">
        <path d="M221.126,200.183L176.317,210.411L176.317,0L208.463,18.021L221.126,200.183Z" style="fill:rgb(13,13,14);fill-rule:nonzero;"/>
    </g>
    <g transform="matrix(1,0,0,1,126.568083,-149.315205)">
        <path d="M0,233.79L0.487,275.434L9.254,275.434L9.254,250.837L17.047,267.884L24.353,267.884L31.659,250.837L31.659,275.434L40.913,275.434L40.913,233.79L30.441,233.79L20.7,255.708L10.715,233.79L0,233.79Z" style="fill:rgb(13,13,14);fill-rule:nonzero;"/>
    </g>
    <g transform="matrix(1,0,0,1,126.568083,-149.315205)">
        <path d="M47.245,260.091C47.245,260.091 46.847,251.805 47.976,246.697C48.078,246.235 48.155,245.832 48.226,245.46C48.483,244.109 48.661,243.176 49.68,241.339C52.406,236.426 56.806,233.79 62.831,233.059C64.531,232.853 65.515,232.853 67.215,233.059C73.239,233.79 77.777,236.489 80.365,241.339C81.314,243.117 81.664,244.473 82.07,246.697C82.941,251.47 82.557,260.091 82.557,260.091C82.557,260.091 81.853,264.816 80.365,267.397C77.335,272.655 73.239,274.946 67.215,275.677C65.515,275.883 64.531,275.883 62.831,275.677C56.806,274.946 52.465,272.789 49.68,267.397C48.336,264.794 47.245,260.091 47.245,260.091ZM56.986,248.158C56.986,248.158 57.95,245.178 58.935,243.775C59.919,242.371 61.103,241.822 62.831,241.339C64.48,240.879 65.566,240.879 67.215,241.339C68.943,241.822 69.936,242.33 71.111,243.775C72.286,245.219 72.987,248.158 72.987,248.158L72.987,260.091C72.987,260.091 72.47,263.259 71.355,264.718C70.153,266.291 69.071,266.884 67.215,267.397C65.565,267.853 64.483,267.848 62.831,267.397C60.846,266.856 59.659,266.138 58.447,264.475C57.385,263.017 56.986,260.091 56.986,260.091L56.986,248.158Z" style="fill:rgb(13,13,14);"/>
    </g>
    <g transform="matrix(1,0,0,1,126.568083,-149.315205)">
        <path d="M171.689,275.832L171.202,233.214L180.944,233.214L180.944,267.154L197.747,267.154L197.747,275.832L171.689,275.832Z" style="fill:rgb(13,13,14);fill-rule:nonzero;"/>
    </g>
    <g transform="matrix(1,0,0,1,126.568083,-149.315205)">
        <rect x="204.079" y="233.214" width="9.011" height="42.618" style="fill:rgb(13,13,14);fill-rule:nonzero;"/>
    </g>
    <g transform="matrix(1,0,0,1,126.568083,-149.315205)">
        <path d="M249.619,233.214L219.422,233.214L219.422,241.494L229.893,241.494L229.893,275.832L239.148,275.832L239.148,241.494L249.619,241.494L249.619,233.214Z" style="fill:rgb(13,13,14);fill-rule:nonzero;"/>
    </g>
    <g transform="matrix(1,0,0,1,126.568083,-149.315205)">
        <path d="M255.708,275.832L255.708,233.214L264.962,233.214L264.962,249.863L278.356,249.863L278.356,233.214L287.854,233.214L287.854,275.19L278.356,275.19L278.356,258.874L264.962,258.874L264.962,275.832L255.708,275.832Z" style="fill:rgb(13,13,14);fill-rule:nonzero;"/>
    </g>
    <g transform="matrix(1,0,0,1,126.568083,-149.315205)">
        <rect x="295.647" y="233.214" width="9.254" height="41.976" style="fill:rgb(13,13,14);fill-rule:nonzero;"/>
    </g>
    <g transform="matrix(1,0,0,1,126.568083,-149.315205)">
        <path d="M335.342,242.557C338.423,244.353 338.021,249.863 338.021,249.863L346.301,249.863C346.301,249.863 346.446,244.479 345.084,241.494C343.721,238.51 339.671,234.43 334.368,233.214C331.402,232.534 329.566,232.65 326.575,233.214C324.614,233.584 323.504,233.899 321.705,234.764C318.145,236.476 316.083,238.047 314.155,241.494C312.517,244.423 312.207,249.863 312.207,249.863C312.207,249.863 311.79,255.38 312.207,258.874C312.207,258.874 312.576,264.231 314.155,267.154C316.075,270.705 318.092,272.415 321.705,274.216C323.498,275.11 324.609,275.447 326.575,275.832C328.542,276.217 331.44,276.662 334.368,275.832C337.296,275.002 343.146,271.923 345.084,268.615C347.021,265.307 346.301,258.874 346.301,258.874L338.021,258.874C338.021,258.874 338.394,264.639 335.342,266.423C332.715,267.959 329.302,268.505 326.575,267.154C323.214,265.488 321.705,258.874 321.705,258.874L321.705,249.863C321.705,249.863 323.186,244.235 326.575,242.557C329.303,241.207 332.713,241.024 335.342,242.557Z" style="fill:rgb(13,13,14);fill-rule:nonzero;"/>
    </g>
    <g transform="matrix(1,0,0,1,126.568083,-149.315205)">
        <path d="M129.383,260.246C129.383,260.246 128.985,251.959 130.114,246.852C130.216,246.389 130.293,245.986 130.364,245.615C130.621,244.264 130.799,243.331 131.818,241.494C134.543,236.581 138.944,233.945 144.969,233.214C146.668,233.008 147.653,233.008 149.353,233.214C155.377,233.945 159.915,236.644 162.503,241.494C163.452,243.272 163.802,244.628 164.208,246.852C165.079,251.624 164.695,260.246 164.695,260.246C164.695,260.246 163.991,264.971 162.503,267.552C159.473,272.81 155.377,275.101 149.353,275.832C147.653,276.038 146.668,276.038 144.969,275.832C138.944,275.101 134.603,272.944 131.818,267.552C130.474,264.949 129.383,260.246 129.383,260.246ZM139.124,248.313C139.124,248.313 140.088,245.333 141.072,243.929C142.057,242.526 143.241,241.977 144.969,241.494C146.618,241.033 147.704,241.033 149.353,241.494C151.081,241.977 152.074,242.485 153.249,243.929C154.424,245.374 155.125,248.313 155.125,248.313L155.125,260.246C155.125,260.246 154.608,263.413 153.493,264.873C152.291,266.446 151.209,267.039 149.353,267.552C147.703,268.008 146.621,268.002 144.969,267.552C142.984,267.011 141.797,266.292 140.585,264.63C139.523,263.171 139.124,260.246 139.124,260.246L139.124,248.313Z" style="fill:rgb(13,13,14);"/>
    </g>
    <g transform="matrix(1,0,0,1,126.568083,-149.315205)">
        <path d="M89.863,233.79L89.863,275.19L99.604,275.19L99.604,251.081L113.486,275.19L122.496,275.19L122.496,233.79L113.729,233.79L113.973,258.63L99.604,233.79L89.863,233.79Z" style="fill:rgb(13,13,14);fill-rule:nonzero;"/>
    </g>
</svg>
